<?xml version="1.0" standalone="no"?>
<!DOCTYPE svg PUBLIC "-//W3C//DTD SVG 20010904//EN"
 "http://www.w3.org/TR/2001/REC-SVG-20010904/DTD/svg10.dtd">
<svg version="1.0" xmlns="http://www.w3.org/2000/svg"
 width="350.000000pt" height="350.000000pt" viewBox="0 0 350.000000 350.000000"
 preserveAspectRatio="xMidYMid meet">

<g transform="translate(0.000000,350.000000) scale(0.100000,-0.100000)"
fill="#000000" stroke="none">
<path d="M1495 3359 c-345 -53 -638 -201 -886 -449 -233 -232 -372 -488 -440
-810 -31 -144 -33 -445 -5 -595 45 -242 152 -484 303 -685 54 -72 211 -227
293 -290 313 -239 710 -356 1096 -321 395 35 728 194 1010 483 219 225 362
501 420 813 28 149 26 452 -4 592 -105 491 -412 891 -847 1108 -144 71 -209
95 -365 132 -90 21 -134 25 -310 28 -113 2 -232 0 -265 -6z m373 -69 c196 -21
357 -67 526 -151 152 -76 269 -161 397 -289 212 -212 344 -452 411 -751 20
-90 23 -131 23 -309 0 -178 -3 -219 -23 -309 -136 -604 -578 -1042 -1186
-1173 -147 -32 -436 -32 -584 0 -605 131 -1049 571 -1184 1173 -20 90 -23 131
-23 309 0 226 10 290 70 476 150 459 543 838 1004 969 202 57 382 75 569 55z"/>
<path d="M1723 3283 c-65 -13 -110 -127 -82 -207 31 -88 141 -114 201 -47 15
17 28 38 28 46 0 25 -46 18 -64 -10 -11 -17 -26 -25 -44 -25 -49 0 -65 21 -70
88 -4 55 -2 63 21 86 33 33 62 33 92 0 16 -17 32 -24 49 -22 23 3 25 5 13 27
-23 47 -88 75 -144 64z"/>
<path d="M1420 3248 c-30 -5 -59 -13 -63 -17 -4 -4 4 -66 18 -137 14 -71 25
-130 25 -132 0 -2 10 -2 23 0 20 3 22 8 19 55 l-3 53 41 6 c63 10 90 37 90 89
0 79 -43 103 -150 83z m94 -71 c12 -33 2 -46 -47 -57 -39 -8 -37 -10 -51 52
-5 22 -2 27 16 31 49 10 72 3 82 -26z"/>
<path d="M1975 3238 c-8 -24 -64 -252 -62 -254 1 -1 14 -5 28 -9 24 -6 26 -3
38 49 7 31 16 58 20 60 6 4 91 -13 99 -20 2 -1 -2 -28 -9 -58 -13 -61 -14 -61
17 -70 20 -6 24 2 54 125 27 109 31 133 19 140 -26 16 -38 9 -48 -28 -6 -21
-11 -44 -11 -52 0 -9 -8 -11 -26 -7 -15 4 -39 10 -55 13 -32 6 -34 11 -18 67
8 31 8 41 -3 47 -19 13 -38 11 -43 -3z"/>
<path d="M1228 3193 c-10 -2 -18 -10 -18 -16 0 -7 19 -67 42 -134 38 -109 45
-122 63 -117 34 11 35 17 4 104 -49 141 -60 170 -67 169 -4 -1 -15 -3 -24 -6z"/>
<path d="M1105 3138 c-11 -6 -21 -12 -23 -14 -2 -1 6 -20 17 -43 12 -22 21
-44 21 -49 0 -10 -72 -52 -89 -52 -6 0 -21 20 -33 44 -19 40 -24 44 -42 34
-12 -6 -23 -12 -25 -14 -4 -4 122 -244 129 -244 4 0 14 6 24 13 17 13 17 16
-9 66 -14 29 -25 54 -23 55 2 2 25 14 51 29 l48 26 26 -55 c15 -29 30 -54 33
-54 3 0 14 6 25 13 17 13 14 21 -46 135 -59 110 -66 119 -84 110z"/>
<path d="M2270 3104 c-36 -31 -56 -66 -65 -116 -19 -98 106 -184 194 -132 66
39 103 154 67 209 -44 67 -140 86 -196 39z m137 -46 c25 -23 29 -51 12 -95
-16 -44 -49 -73 -81 -73 -63 0 -94 41 -77 103 22 79 96 112 146 65z"/>
<path d="M2507 2888 c-85 -103 -85 -103 -66 -123 20 -20 20 -20 54 19 l33 40
33 -28 c49 -42 75 -49 110 -31 36 19 64 73 55 108 -5 22 -107 117 -126 117 -4
0 -46 -46 -93 -102z m140 10 c25 -23 30 -57 11 -76 -18 -18 -40 -15 -72 11
l-29 24 23 31 c28 38 36 39 67 10z"/>
<path d="M749 2911 c-32 -31 -39 -46 -39 -76 0 -79 79 -165 151 -165 73 0 136
72 123 140 -8 38 -14 42 -38 25 -13 -10 -17 -21 -12 -38 8 -34 -27 -77 -63
-77 -49 0 -111 66 -111 120 0 35 37 63 75 57 24 -4 38 -1 49 12 23 25 2 41
-52 41 -38 0 -50 -5 -83 -39z"/>
<path d="M1658 2733 c-12 -27 -45 -102 -75 -167 -29 -66 -53 -123 -53 -128 0
-5 21 -8 47 -6 l47 3 44 110 c24 61 47 113 51 118 4 4 30 -47 57 -113 l49
-120 48 0 c26 0 47 2 47 4 0 4 -116 266 -140 319 -11 23 -19 27 -57 27 -43 0
-45 -1 -65 -47z"/>
<path d="M942 2607 c-12 -13 -22 -25 -22 -28 0 -3 169 -173 375 -379 l375
-375 -375 -375 c-206 -206 -375 -380 -375 -386 0 -6 10 -20 23 -32 l23 -22
374 375 c206 206 379 375 385 375 5 0 179 -169 385 -375 l374 -374 23 21 c13
12 23 26 23 32 0 6 -169 180 -375 386 l-375 375 377 377 378 378 -28 27 -27
28 -378 -378 -377 -377 -375 375 c-206 206 -378 375 -381 375 -3 0 -15 -10
-27 -23z"/>
<path d="M356 2308 c-9 -12 -16 -34 -16 -48 0 -44 26 -70 70 -70 30 0 43 6 59
26 26 34 26 54 0 88 -27 35 -90 37 -113 4z"/>
<path d="M2987 2312 c-23 -25 -22 -85 1 -105 26 -24 85 -22 107 3 43 48 10
120 -55 120 -23 0 -43 -7 -53 -18z"/>
<path d="M886 2020 c-34 -11 -73 -45 -92 -82 -21 -41 -18 -48 26 -48 30 0 42
5 47 18 13 36 46 62 81 62 72 0 114 -85 97 -197 -16 -110 -131 -142 -171 -47
-13 31 -18 34 -55 34 -37 0 -40 -2 -34 -22 22 -72 94 -129 161 -128 38 1 100
24 126 47 71 63 77 241 11 315 -42 48 -128 68 -197 48z"/>
<path d="M2434 2020 c-34 -11 -90 -67 -105 -107 -14 -36 -11 -159 5 -196 30
-74 123 -120 205 -102 38 8 87 47 106 86 25 47 20 59 -25 59 -34 0 -40 -3 -40
-20 0 -33 -44 -70 -83 -70 -58 0 -97 60 -97 150 0 90 39 150 97 150 36 0 83
-36 83 -65 0 -11 11 -15 46 -15 42 0 45 1 38 23 -11 36 -44 76 -75 93 -38 19
-115 26 -155 14z"/>
<path d="M2958 1632 c-4 -16 11 -29 77 -68 46 -27 81 -52 79 -55 -2 -4 -37
-10 -76 -14 -87 -9 -118 -19 -118 -40 0 -8 2 -15 4 -15 2 0 49 -9 105 -21 57
-11 105 -18 108 -16 13 14 -12 25 -82 37 -41 7 -75 16 -75 20 0 4 33 10 73 14
135 13 139 26 27 90 -44 26 -80 48 -80 50 0 3 92 -14 158 -29 15 -4 22 -1 22
8 0 10 -28 20 -87 31 -49 10 -98 20 -109 22 -15 4 -23 0 -26 -14z"/>
<path d="M385 1619 c-110 -23 -121 -27 -109 -39 5 -5 37 -3 79 6 38 8 75 13
82 12 7 -2 -23 -23 -67 -48 -105 -59 -103 -72 12 -85 48 -6 90 -13 93 -16 3
-4 -31 -13 -76 -22 -45 -10 -84 -19 -87 -22 -21 -21 71 -13 181 16 26 7 37 15
37 29 0 15 -10 20 -57 26 -32 3 -78 10 -103 13 l-45 6 88 54 c62 37 87 57 83
68 -3 8 -6 17 -6 19 0 5 1 5 -105 -17z"/>
<path d="M1590 1257 l-135 -72 -2 -160 -3 -160 134 -77 c73 -43 136 -78 140
-78 4 0 65 35 136 77 l130 76 0 158 0 158 -67 39 c-38 22 -97 55 -133 75 l-65
35 -135 -71z m205 -58 c41 -22 75 -42 75 -44 0 -2 -33 -22 -74 -44 l-74 -41
-71 41 c-64 36 -87 59 -62 59 5 0 35 15 67 34 33 19 60 35 62 35 2 1 36 -17
77 -40z m-147 -176 l32 -17 0 -88 c0 -48 -3 -88 -7 -88 -4 0 -37 18 -75 40
l-68 41 0 90 0 90 43 -26 c23 -14 57 -34 75 -42z m272 -27 l0 -84 -72 -42
c-40 -24 -76 -45 -80 -47 -5 -2 -8 36 -8 86 l0 90 68 40 c37 22 73 40 80 41 9
0 12 -23 12 -84z"/>
<path d="M2865 1302 c-3 -10 22 -40 76 -91 45 -42 86 -77 90 -79 19 -7 8 26
-15 47 -23 22 -23 24 -8 62 14 36 18 39 54 39 51 0 49 17 -4 24 -115 14 -187
13 -193 -2z m112 -18 c21 -6 22 -8 7 -35 -8 -16 -16 -29 -17 -29 -2 0 -18 16
-37 35 l-34 35 30 0 c16 0 39 -3 51 -6z"/>
<path d="M423 1303 c-56 -3 -73 -7 -73 -18 0 -11 12 -15 40 -15 36 0 41 -3 55
-37 15 -36 15 -37 -12 -65 -17 -17 -23 -32 -17 -37 5 -6 41 21 92 70 94 89
100 110 30 107 -24 -1 -76 -4 -115 -5z m97 -58 c-36 -37 -45 -36 -55 8 -7 27
-7 27 41 27 l48 0 -34 -35z"/>
<path d="M565 1108 c-38 -27 -76 -53 -84 -58 -20 -11 42 -108 75 -116 39 -10
90 5 123 35 47 44 49 72 10 136 -18 30 -38 55 -44 54 -5 0 -41 -23 -80 -51z
m121 -45 c12 -45 -26 -93 -89 -108 -22 -6 -32 -1 -57 25 -16 18 -30 38 -30 45
0 7 30 33 68 58 l67 46 18 -22 c9 -12 20 -32 23 -44z"/>
<path d="M2788 1129 c-26 -14 -82 -100 -71 -108 93 -65 164 -111 173 -111 15
0 70 90 70 116 0 12 -12 36 -26 54 -45 53 -105 73 -146 49z m92 -35 c56 -38
65 -80 27 -127 l-22 -27 -67 45 c-38 25 -68 49 -68 53 0 10 31 55 44 64 19 13
61 9 86 -8z"/>
<path d="M710 885 l-75 -75 57 -56 c35 -35 60 -54 68 -49 8 5 -3 23 -36 56
l-48 49 27 27 27 27 41 -42 c23 -23 46 -39 51 -36 6 4 -9 26 -33 50 -42 43
-42 44 -24 64 25 28 33 26 81 -21 25 -25 47 -38 54 -34 13 8 -85 115 -105 115
-6 0 -44 -34 -85 -75z"/>
<path d="M2587 892 l-47 -48 78 -76 c55 -55 81 -75 91 -69 10 7 7 15 -18 36
-38 35 -39 44 -3 78 35 33 52 34 82 2 17 -18 27 -22 36 -14 10 8 6 17 -20 40
-19 16 -41 29 -50 29 -9 0 -16 8 -16 18 0 11 -8 26 -18 35 -32 29 -64 21 -115
-31z m95 11 c24 -21 23 -30 -8 -70 -29 -39 -40 -41 -71 -11 l-23 22 37 38 c20
21 39 38 42 38 2 0 13 -7 23 -17z"/>
<path d="M2430 770 c-30 -22 -56 -44 -58 -50 -3 -7 39 -73 109 -173 5 -7 94
45 138 79 1 1 0 7 -3 13 -4 7 -28 -4 -63 -26 l-55 -37 -19 23 c-27 34 -24 43
26 74 43 28 57 47 34 47 -6 0 -31 -14 -56 -31 -47 -33 -47 -33 -74 13 -8 15 0
24 46 54 30 20 52 40 49 45 -8 14 -15 11 -74 -31z"/>
<path d="M998 647 c-35 -56 -53 -96 -48 -101 5 -5 11 -8 13 -5 28 35 115 185
111 191 -11 17 -20 6 -76 -85z"/>
<path d="M1100 604 c-46 -99 -48 -108 -35 -113 5 -2 26 34 46 79 42 93 38 96
60 -57 12 -85 31 -114 48 -70 5 12 25 57 45 100 41 89 40 87 24 87 -7 0 -28
-36 -47 -80 -19 -44 -36 -79 -37 -77 -3 3 -34 198 -34 212 0 3 -7 5 -15 5 -9
0 -31 -34 -55 -86z"/>
<path d="M2225 651 c-49 -23 -75 -40 -68 -44 7 -5 21 -3 32 3 36 19 46 11 80
-68 38 -85 45 -96 59 -91 5 2 -8 44 -30 94 -37 84 -38 90 -22 102 10 7 24 13
31 13 7 0 13 7 13 15 0 20 -3 19 -95 -24z"/>
<path d="M1985 565 c-28 -27 -31 -52 -11 -80 11 -15 25 -18 69 -17 80 2 115
-37 65 -72 -31 -22 -65 -20 -85 4 -18 21 -43 27 -43 10 0 -25 41 -50 81 -50
52 0 105 46 93 82 -12 40 -25 48 -79 48 -30 0 -60 3 -69 6 -26 10 -19 49 9 62
36 17 49 15 70 -8 12 -14 22 -17 29 -10 6 6 3 16 -9 30 -27 29 -89 27 -120 -5z"/>
<path d="M1459 465 c-46 -86 -53 -105 -39 -105 10 0 23 13 30 31 13 29 15 31
54 25 44 -7 56 -19 56 -53 0 -12 5 -25 11 -28 25 -16 24 0 -17 208 -11 52 -36
31 -95 -78z m83 5 c3 -34 2 -35 -27 -32 -16 2 -32 5 -34 7 -1 2 7 22 20 45 25
44 35 40 41 -20z"/>
<path d="M1853 548 c-5 -7 -18 -44 -28 -83 -23 -91 -31 -107 -41 -80 -60 157
-62 160 -84 163 -23 4 -23 3 -17 -65 4 -37 7 -90 7 -116 0 -34 4 -47 12 -45 9
3 11 30 9 94 -1 49 0 87 3 84 3 -3 18 -41 34 -85 39 -106 54 -108 82 -13 33
116 39 122 39 43 1 -77 9 -115 22 -115 11 0 11 49 3 153 -7 76 -18 94 -41 65z"/>
</g>
</svg>
