<?xml version="1.0" encoding="utf-8"?>
<!-- Generator: Adobe Illustrator 26.0.1, SVG Export Plug-In . SVG Version: 6.00 Build 0)  -->
<svg version="1.1" id="Layer_8" xmlns="https://www.w3.org/2000/svg" xmlns:xlink="https://www.w3.org/1999/xlink" x="0px" y="0px"
	 viewBox="0 0 595.28 841.89" style="enable-background:new 0 0 595.28 841.89;" xml:space="preserve">
<style type="text/css">
	.st0{font-family:'ArialMT';}
	.st1{font-size:12px;}
	.st2{fill:#FFFFFF;}
	.st3{fill:#1D1D1B;}
	.st4{fill:none;}
	.st5{font-family:'Helvetica-Bold';}
	.st6{font-size:55.1942px;}
	.st7{fill:none;stroke:#231F20;stroke-miterlimit:10;}
</style>
<text transform="matrix(1 0 0 1 0 -1.464844e-05)" class="st0 st1"> </text>
<text transform="matrix(1 0 0 1 0 -1.464844e-05)" class="st0 st1"> </text>
<text transform="matrix(1 0 0 1 0 -1.464844e-05)" class="st0 st1"> </text>
<text transform="matrix(1 0 0 1 0 -1.464844e-05)" class="st0 st1"> </text>
<text transform="matrix(1 0 0 1 0 -1.464844e-05)" class="st0 st1"> </text>
<text transform="matrix(1 0 0 1 0 -1.464844e-05)" class="st0 st1"> </text>
<g>
	<circle class="st2" cx="287.7" cy="283.52" r="154.75"/>
	<path class="st3" d="M287.7,442.28c-87.54,0-158.75-71.22-158.75-158.75s71.22-158.75,158.75-158.75
		c87.54,0,158.75,71.22,158.75,158.75S375.24,442.28,287.7,442.28z M287.7,132.77c-83.13,0-150.75,67.63-150.75,150.75
		s67.63,150.75,150.75,150.75s150.75-67.63,150.75-150.75S370.82,132.77,287.7,132.77z"/>
</g>
<g>
	
		<rect x="283.7" y="169.45" transform="matrix(0.7071 -0.7071 0.7071 0.7071 -113.9392 285.5333)" class="st3" width="8" height="221.71"/>
	
		<rect x="176.84" y="276.3" transform="matrix(0.7071 -0.7071 0.7071 0.7071 -113.9393 285.5327)" class="st3" width="221.71" height="8"/>
</g>
<path id="SVGID_x5F_1_x5F_" class="st4" d="M281.23,403.9c-66.48-3.57-117.48-60.36-113.91-126.84
	c3.57-66.48,60.36-117.48,126.84-113.91c66.48,3.57,117.48,60.36,113.91,126.84C404.5,356.47,347.71,407.47,281.23,403.9z"/>
<text><textPath  xlink:href="#SVGID_x5F_1_x5F_" startOffset="98.1447%">
<tspan  class="st3 st5" style="font-size:39.125px;">                                              </tspan><tspan  class="st3 st5" style="font-size:39.125px;">CHIPCHOP  </tspan></textPath>
</text>
<path id="SVGID_x5F_00000084495329409507213210000012309656317613685933_x5F_" class="st4" d="M284.78,137.09
	c-80.87,1.61-145.13,68.48-143.51,149.36c1.61,80.87,68.48,145.13,149.36,143.51c80.88-1.61,145.13-68.48,143.52-149.36
	C432.52,199.72,365.65,135.47,284.78,137.09z"/>
<text><textPath  xlink:href="#SVGID_x5F_00000084495329409507213210000012309656317613685933_x5F_" startOffset="35.1277%">
<tspan  class="st3" style="font-family:'Helvetica'; font-size:31.4397px; letter-spacing:100;">MADE IN AMSTERDAM</tspan></textPath>
</text>
<rect x="344.43" y="260.22" class="st4" width="43.32" height="40.17"/>
<text transform="matrix(1 0 0 1 344.4273 299.8764)" class="st3 st5 st6">C</text>
<g>
	<g>
		<path class="st3" d="M222.91,264.3c-3.23-3.27-7.35-4.91-12.34-4.91c-6.68,0-11.57,2.19-14.66,6.58
			c-1.71,2.46-2.62,4.93-2.75,7.41h8.3c0.54-1.9,1.23-3.34,2.08-4.31c1.51-1.72,3.75-2.59,6.71-2.59c3.02,0,5.4,1.22,7.14,3.65
			c1.74,2.44,2.61,5.88,2.61,10.34c0,4.46-0.92,7.79-2.76,10.01c-1.84,2.22-4.18,3.33-7.02,3.33c-2.91,0-5.13-0.95-6.66-2.86
			c-0.84-1.02-1.55-2.56-2.1-4.61h-8.22c0.72,4.33,2.55,7.85,5.5,10.56c2.96,2.71,6.76,4.07,11.37,4.07c5.71,0,10.21-1.83,13.48-5.5
			c3.27-3.68,4.9-8.73,4.9-15.15C228.49,273.4,226.63,268.06,222.91,264.3z"/>
	</g>
</g>
<g>
	<path class="st3" d="M291.97,184.31l15.6,35.22h-9.69l-10.38-25.12l-10.32,25.12h-9.72l15.67-35.22H291.97z"/>
</g>
<path class="st3" d="M163.89,236.36c0,4.12-3.34,7.45-7.45,7.45c-4.12,0-7.45-3.34-7.45-7.45c0-4.12,3.34-7.45,7.45-7.45
	C160.55,228.91,163.89,232.25,163.89,236.36z"/>
<ellipse transform="matrix(0.7071 -0.7071 0.7071 0.7071 -44.329 365.7079)" class="st3" cx="419.28" cy="236.36" rx="7.45" ry="7.45"/>
<g>
	<path class="st3" d="M287.47,391.91l-27.19-16.13v-31.67l27.28-14.66l26.99,14.89l0.19,31.49L287.47,391.91z M268.28,371.23
		l19.2,11.39l19.24-11.34l-0.14-22.2l-19.07-10.52l-19.23,10.34V371.23z"/>
	<polygon class="st3" points="287.47,364.66 262.27,349.96 266.3,343.05 287.49,355.41 308.57,343.25 312.57,350.18 	"/>
	<rect x="283.48" y="360.03" class="st3" width="8" height="27.23"/>
</g>
<g>
	<circle class="st7" cx="913.65" cy="436.45" r="154.75"/>
	<path class="st2" d="M913.66,595.21c-87.54,0-158.75-71.22-158.75-158.75S826.12,277.7,913.66,277.7
		c87.54,0,158.75,71.22,158.75,158.75S1001.19,595.21,913.66,595.21z M913.66,285.7c-83.13,0-150.75,67.63-150.75,150.75
		s67.63,150.75,150.75,150.75s150.75-67.63,150.75-150.75S996.78,285.7,913.66,285.7z"/>
	<g>
		
			<rect x="909.65" y="322.38" transform="matrix(0.7071 -0.7071 0.7071 0.7071 -38.7392 772.9444)" class="st2" width="8" height="221.71"/>
		
			<rect x="802.8" y="429.23" transform="matrix(0.7071 -0.7071 0.7071 0.7071 -38.7398 772.9429)" class="st2" width="221.71" height="8"/>
	</g>
	<path id="SVGID_x5F_00000132808725947800749090000014179607729944964259_x5F_" class="st4" d="M907.19,556.83
		c-66.48-3.57-117.48-60.36-113.91-126.84c3.57-66.48,60.36-117.48,126.84-113.91c66.48,3.57,117.48,60.36,113.91,126.84
		C1030.46,509.4,973.67,560.4,907.19,556.83z"/>
	<text>	<textPath  xlink:href="#SVGID_x5F_00000132808725947800749090000014179607729944964259_x5F_" startOffset="98.1447%">
<tspan  class="st2 st5" style="font-size:39.125px;">                                              </tspan><tspan  class="st2 st5" style="font-size:39.125px;">CHIPCHOP  </tspan>	</textPath>
</text>
	<path id="SVGID_x5F_00000068665417687968034540000001781079633363610011_x5F_" class="st4" d="M910.73,290.02
		c-80.88,1.61-145.13,68.48-143.51,149.36c1.61,80.87,68.48,145.13,149.36,143.51c80.88-1.61,145.13-68.48,143.52-149.36
		C1058.47,352.66,991.61,288.4,910.73,290.02z"/>
	<text>	<textPath  xlink:href="#SVGID_x5F_00000068665417687968034540000001781079633363610011_x5F_" startOffset="35.1277%">
<tspan  class="st2" style="font-family:'Helvetica'; font-size:31.4397px; letter-spacing:100;">MADE IN AMSTERDAM</tspan>	</textPath>
</text>
	<rect x="970.38" y="413.15" class="st4" width="43.32" height="40.17"/>
	<text transform="matrix(1 0 0 1 970.3833 452.8077)" class="st2 st5 st6">C</text>
	<g>
		<g>
			<path class="st2" d="M848.87,417.23c-3.23-3.27-7.35-4.91-12.34-4.91c-6.68,0-11.57,2.19-14.66,6.58
				c-1.71,2.46-2.62,4.93-2.75,7.41h8.3c0.54-1.9,1.23-3.34,2.08-4.31c1.51-1.72,3.75-2.59,6.71-2.59c3.02,0,5.4,1.22,7.14,3.65
				c1.74,2.44,2.61,5.88,2.61,10.34s-0.92,7.79-2.76,10.01c-1.84,2.22-4.18,3.33-7.02,3.33c-2.91,0-5.13-0.95-6.66-2.86
				c-0.84-1.02-1.55-2.56-2.1-4.61h-8.22c0.72,4.33,2.55,7.85,5.5,10.56c2.96,2.71,6.75,4.07,11.37,4.07
				c5.71,0,10.21-1.83,13.47-5.5c3.27-3.68,4.91-8.73,4.91-15.15C854.45,426.33,852.59,420.99,848.87,417.23z"/>
		</g>
	</g>
	<g>
		<path class="st2" d="M917.92,337.24l15.6,35.22h-9.69l-10.38-25.12l-10.32,25.12h-9.72l15.67-35.22H917.92z"/>
	</g>
	<path class="st2" d="M789.84,389.3c0,4.12-3.34,7.45-7.45,7.45c-4.12,0-7.45-3.34-7.45-7.45c0-4.12,3.34-7.45,7.45-7.45
		C786.51,381.84,789.84,385.18,789.84,389.3z"/>
	
		<ellipse transform="matrix(0.7071 -0.7071 0.7071 0.7071 30.8705 853.1182)" class="st2" cx="1045.24" cy="389.3" rx="7.45" ry="7.45"/>
	<g>
		<path class="st2" d="M913.43,544.85l-27.19-16.13v-31.67l27.28-14.66l26.99,14.89l0.19,31.49L913.43,544.85z M894.24,524.16
			l19.2,11.39l19.24-11.34l-0.14-22.2l-19.07-10.52l-19.23,10.34V524.16z"/>
		<polygon class="st2" points="913.42,517.59 888.22,502.9 892.25,495.98 913.44,508.34 934.53,496.18 938.53,503.11 		"/>
		<rect x="909.43" y="512.96" class="st2" width="8" height="27.23"/>
	</g>
</g>
</svg>
